<?xml version="1.0" encoding="utf-8"?>
<!-- Generator: Adobe Illustrator 25.4.1, SVG Export Plug-In . SVG Version: 6.00 Build 0)  -->
<svg version="1.1" id="Layer_1" xmlns="http://www.w3.org/2000/svg" xmlns:xlink="http://www.w3.org/1999/xlink" x="0px" y="0px"
	 viewBox="0 0 712 295" style="enable-background:new 0 0 712 295;" xml:space="preserve">
<style type="text/css">
	.st0{fill-rule:evenodd;clip-rule:evenodd;fill:#3358F4;}
</style>
<desc>Created with Sketch.</desc>
<g id="Design">
	<path id="BigRig-Truck" class="st0" d="M59,71.1c-3-1.9-12.4-7.5-15.6-9.4c-3.8-2.2-4.3-3.6-7.9-3.7s-6.1,0-7.2,3.3
		C27.2,64.6,28.6,79,28.6,79l4.6,0.3v39.5H16.6V79.2h4.8V58.3c0,0,1.3-7.6,9.1-9c7.8-1.5,17.4,4.1,17.4,4.1l11.9,6.3l4.1,1.7
		l5.3-10.7h90.1v142.7c0,0-55.2,1.7-62.6,4.7c-7.4,2.9-10.1,8.2-13.2,14.2s-3.6,11.7-3.6,18.8s-6.4,12.7-6.4,12.7H63.3v7H7.4v-4.9H0
		V148c0,0,5.7-9.6,9.8-12.8s18,0,18,0l2.1-5.7L59,71.1z M609.2,215.5h-48.7c-7.4-7.2-17.4-11.6-28.5-11.6s-21.1,4.4-28.5,11.6h-337
		V0h531.6v215.5h-31.9c-7.4-7.2-17.4-11.6-28.5-11.6S616.6,208.3,609.2,215.5z M124.5,294.7c-22.2,0-40.2-18-40.2-40.2
		s18-40.2,40.2-40.2s40.2,18,40.2,40.2S146.7,294.7,124.5,294.7z M532,294.7c-22.2,0-40.2-18-40.2-40.2s18-40.2,40.2-40.2
		s40.2,18,40.2,40.2S554.3,294.7,532,294.7z M638,294.7c-22.2,0-40.2-18-40.2-40.2s18-40.2,40.2-40.2s40.2,18,40.2,40.2
		S660.2,294.7,638,294.7z M168,230.3h321v8.8c0,0-5.5-1.3-6.4,0s0,11.7,0,11.7H168V230.3z M574,230.3h22.9v6.2h-4.7v16.2h-11.7
		v-15.5h-5.9L574,230.3z M681.7,230.1h26.6v5h3.7V246h-5.4v6.4h-21.1v-14.9l-3.8-0.5V230.1z M79.2,67.6L50.5,118v11.1h87V67.6H79.2z
		 M106,142.8v7.4h30.3v-7.4H106z"/>
</g>
</svg>
