<?xml version="1.0" encoding="utf-8"?>
<!-- Generator: Adobe Illustrator 25.4.1, SVG Export Plug-In . SVG Version: 6.00 Build 0)  -->
<svg version="1.1" id="Layer_1" xmlns="http://www.w3.org/2000/svg" xmlns:xlink="http://www.w3.org/1999/xlink" x="0px" y="0px"
	 viewBox="0 0 712 295" style="enable-background:new 0 0 712 295;" xml:space="preserve">
<style type="text/css">
	.st0{fill-rule:evenodd;clip-rule:evenodd;fill:#42BA97;}
</style>
<desc>Created with Sketch.</desc>
<g id="Design">
	<g>
		<path id="BigRig-Truck_00000037682861444368327540000008155059780888979102_" class="st0" d="M68,77.1c-2.9-1.7-12-6.9-15.1-8.6
			c-3.7-2-4.2-3.3-7.6-3.4s-5.9,0-7,3c-1.1,3,0.3,16.2,0.3,16.2l4.4,0.3v36.2H27V84.6h4.6V65.4c0,0,1.3-7,8.8-8.2
			c7.5-1.4,16.8,3.8,16.8,3.8l11.5,5.8l4,1.6l5.1-9.8h87v130.7c0,0-53.3,1.6-60.4,4.3c-7.1,2.7-9.7,7.5-12.7,13s-3.5,10.7-3.5,17.2
			S82,235.4,82,235.4h-9.8v6.4h-54v-4.5H11v-89.7c0,0,5.5-8.8,9.5-11.7s17.4,0,17.4,0l2-5.2L68,77.1z M599.1,209.4h-47
			c-7.1-6.6-16.8-10.6-27.5-10.6c-10.7,0-20.4,4-27.5,10.6H171.7V12h513.2v197.4h-30.8c-7.1-6.6-16.8-10.6-27.5-10.6
			S606.2,202.8,599.1,209.4z M131.2,282c-21.4,0-38.8-16.5-38.8-36.8s17.4-36.8,38.8-36.8s38.8,16.5,38.8,36.8S152.6,282,131.2,282z
			 M524.6,282c-21.4,0-38.8-16.5-38.8-36.8s17.4-36.8,38.8-36.8c21.4,0,38.8,16.5,38.8,36.8S546.1,282,524.6,282z M626.9,282
			c-21.4,0-38.8-16.5-38.8-36.8s17.4-36.8,38.8-36.8c21.4,0,38.8,16.5,38.8,36.8S648.3,282,626.9,282z M173.2,223H483v8.1
			c0,0-5.3-1.2-6.2,0s0,10.7,0,10.7H173.2V223z M565.1,223h22.1v5.7h-4.5v14.8h-11.3v-14.2h-5.7L565.1,223z M669.1,222.8h25.7v4.6
			h3.6v10h-5.2v5.9h-20.4v-13.7l-3.7-0.5V222.8z M87.5,73.9l-27.7,46.2v10.2h84V73.9H87.5z M113.3,142.8v6.8h29.2v-6.8H113.3z"/>
	</g>
</g>
</svg>
