<?xml version="1.0" encoding="utf-8"?>
<!-- Generator: Adobe Illustrator 25.4.1, SVG Export Plug-In . SVG Version: 6.00 Build 0)  -->
<svg version="1.1"
	 id="svg8185" xmlns:cc="http://creativecommons.org/ns#" xmlns:dc="http://purl.org/dc/elements/1.1/" xmlns:inkscape="http://www.inkscape.org/namespaces/inkscape" xmlns:rdf="http://www.w3.org/1999/02/22-rdf-syntax-ns#" xmlns:sodipodi="http://sodipodi.sourceforge.net/DTD/sodipodi-0.dtd" xmlns:svg="http://www.w3.org/2000/svg"
	 xmlns="http://www.w3.org/2000/svg" xmlns:xlink="http://www.w3.org/1999/xlink" x="0px" y="0px" viewBox="0 0 41.4 52"
	 style="enable-background:new 0 0 41.4 52;" xml:space="preserve">
<style type="text/css">
	.st0{fill-rule:evenodd;clip-rule:evenodd;fill:#0FE287;}
	.st1{fill:none;stroke:#0FE287;stroke-width:1.2135;stroke-linecap:round;stroke-miterlimit:3.2;}
	.st2{fill:#FFFFFF;}
</style>
<sodipodi:namedview  bordercolor="#666666" borderopacity="1.0" fit-margin-bottom="0" fit-margin-left="0" fit-margin-right="0" fit-margin-top="0" id="base" inkscape:current-layer="layer1" inkscape:cx="42.888809" inkscape:cy="-0.35335532" inkscape:document-units="mm" inkscape:pageopacity="0.0" inkscape:pageshadow="2" inkscape:window-height="988" inkscape:window-maximized="0" inkscape:window-width="1371" inkscape:window-x="105" inkscape:window-y="98" inkscape:zoom="5.6" pagecolor="#ffffff" showgrid="false">
	</sodipodi:namedview>
<g id="layer1" transform="translate(-248.39789,-451.28461)" inkscape:groupmode="layer" inkscape:label="Ebene 1">
	<g id="g8181" transform="translate(-612.58104,-459.38715)">
		<path id="path8166" inkscape:connector-curvature="0" sodipodi:nodetypes="sscssccccc" class="st0" d="M881.7,910.7
			c-11.4,0-14.2,8.8-14.2,14.1c0,11.3,5.8,20,14.4,34.1c8.4-14.3,14-22.8,14-34.1C895.9,919.2,893.1,910.7,881.7,910.7z
			 M881.6,917.8c3.9,0,7.1,3.2,7.1,7.1c0,3.9-3.2,7.1-7.1,7.1c-3.9,0-7.1-3.2-7.1-7.1C874.5,921,877.7,917.8,881.6,917.8z"/>
		
			<path id="path8172" sodipodi:cx="886.86566" sodipodi:cy="968.06219" sodipodi:end="4.2879646" sodipodi:open="true" sodipodi:rx="25.146593" sodipodi:ry="6.8634496" sodipodi:start="5.1465846" sodipodi:type="arc" class="st1" d="
			M890.2,951.6c8.6,1.1,13.2,3.7,11.2,6.2s-10.3,4.3-19.7,4.3c-9.5,0-17.6-1.8-19.6-4.3c-2-2.5,2.8-5.1,11.4-6.1"/>
	</g>
</g>
<circle class="st2" cx="20.6" cy="14.2" r="6.6"/>
</svg>
