<?xml version="1.0" encoding="utf-8"?>
<!-- Generator: Adobe Illustrator 25.4.1, SVG Export Plug-In . SVG Version: 6.00 Build 0)  -->
<svg version="1.1" xmlns="http://www.w3.org/2000/svg" xmlns:xlink="http://www.w3.org/1999/xlink" x="0px" y="0px"
	 viewBox="0 0 100 125" style="enable-background:new 0 0 100 125;" xml:space="preserve">
<style type="text/css">
	.st0{fill:none;}
	.st1{fill:#42BA97;}
</style>
<g id="Layer_2">
</g>
<g id="Layer_1">
	<ellipse class="st0" cx="76.2" cy="64.6" rx="3.8" ry="3.3"/>
	<path class="st0" d="M3983.9,1581.3c-3.6,0-5.6,0.9-5.7,1.2c0.1,0.3,2,1.2,5.7,1.2c3.6,0,5.5-0.9,5.7-1.2
		C3989.4,1582.2,3987.5,1581.3,3983.9,1581.3z"/>
	<path d="M3991.2,1583.7v-1.3c0-1.8-3.8-2.6-7.3-2.6s-7.3,0.9-7.3,2.6v1.3c0,1.2,0.5,2.4,1.5,3.2l3.8,3.2c0.2,0.2,0.3,0.4,0.3,0.7
		v4.2c0,0.3,0.2,0.5,0.5,0.5l2.2,0.6c0.4,0.1,0.8-0.1,0.8-0.5v-4.7c0-0.3,0.2-0.5,0.3-0.7l3.8-3.3
		C3990.6,1586.1,3991.2,1584.9,3991.2,1583.7z M3983.9,1583.7c-3.6,0-5.6-0.9-5.7-1.2c0.1-0.3,2-1.2,5.7-1.2c3.6,0,5.5,0.9,5.7,1.2
		C3989.4,1582.8,3987.5,1583.7,3983.9,1583.7z"/>
	<path d="M3987.6,1591.7h3.2c0.5,0,0.8-0.3,0.8-0.7c0-0.4-0.3-0.7-0.8-0.7h-3.2c-0.5,0-0.8,0.3-0.8,0.7
		C3986.9,1591.5,3987.2,1591.7,3987.6,1591.7z"/>
	<path d="M3990.9,1592.6h-3.2c-0.5,0-0.8,0.3-0.8,0.7s0.3,0.7,0.8,0.7h3.2c0.5,0,0.8-0.3,0.8-0.7
		C3991.6,1592.9,3991.3,1592.6,3990.9,1592.6z"/>
	<path d="M3990.9,1594.8h-3.2c-0.5,0-0.8,0.3-0.8,0.7s0.3,0.7,0.8,0.7h3.2c0.5,0,0.8-0.3,0.8-0.7
		C3991.6,1595.1,3991.3,1594.8,3990.9,1594.8z"/>
	<path class="st1" d="M73.8,51.3c-0.5-0.9-1.4-1.4-2.5-1.4h-9.2v-2.1c0-1.5-1.3-2.7-2.9-2.7H24.7c-1.6,0-2.9,1.2-2.9,2.7v14.2h0v4.3
		h0V76c0,1.5,1.3,2.7,2.9,2.7h2.9c0.4,3.9,3.8,7,8.1,7s7.7-3.1,8.1-7h15.1c0.4,3.9,3.8,7,8.1,7s7.7-3.1,8.1-7h3.2
		c1.6,0,2.8-1.2,2.8-2.6V65c0-0.4-0.1-0.9-0.3-1.2L73.8,51.3z M35.7,81.7c-2.1,0-3.9-1.6-3.9-3.6s1.8-3.6,3.9-3.6s3.9,1.6,3.9,3.6
		C39.6,80.2,37.8,81.7,35.7,81.7z M67,81.7c-2.1,0-3.9-1.6-3.9-3.6s1.8-3.6,3.9-3.6c2.1,0,3.9,1.6,3.9,3.6
		C70.9,80.2,69.1,81.7,67,81.7z M62.2,63.1v-8h7.4l4.4,8H62.2z"/>
</g>
</svg>
